<!DOCTYPE svg PUBLIC "-//W3C//DTD SVG 20010904//EN" "http://www.w3.org/TR/2001/REC-SVG-20010904/DTD/svg10.dtd">
<svg version="1.0" xmlns="http://www.w3.org/2000/svg" width="600px" height="600px" viewBox="0 0 6000 6000" preserveAspectRatio="xMidYMid meet">
<g id="layer1" fill="#ffffff" stroke="none">
 <path d="M2670 5846 c-348 -44 -642 -133 -950 -287 -329 -165 -579 -354 -837 -634 -187 -203 -316 -392 -448 -660 -139 -280 -222 -543 -272 -865 -14 -91 -18 -175 -18 -405 0 -310 8 -393 61 -635 84 -379 285 -808 528 -1122 123 -160 354 -391 514 -514 314 -243 743 -444 1122 -528 242 -53 325 -61 635 -61 310 0 393 8 635 61 379 84 808 285 1122 528 160 123 391 354 514 514 243 314 444 743 528 1122 53 242 61 325 61 635 0 310 -8 391 -61 635 -82 375 -286 809 -528 1122 -123 160 -354 391 -514 514 -143 110 -300 207 -487 299 -276 137 -541 221 -855 271 -142 22 -603 28 -750 10z m1228 -1652 c691 -462 839 -565 854 -594 17 -32 18 -75 18 -605 0 -530 -1 -573 -18 -605 -15 -29 -163 -132 -856 -595 l-838 -560 -53 0 -53 0 -838 560 c-693 463 -841 566 -856 595 -17 32 -18 75 -18 605 0 530 1 573 18 605 15 29 159 130 828 577 445 298 827 551 849 563 84 45 43 68 963 -546z"/>
 <path d="M2248 3937 c-323 -216 -587 -396 -587 -402 0 -5 119 -89 266 -187 l266 -176 333 221 333 222 1 358 c0 279 -3 357 -12 356 -7 0 -277 -177 -600 -392z"/>
 <path d="M3150 3973 l1 -358 333 -222 333 -221 266 176 c147 98 266 182 266 187 0 11 -1161 788 -1185 793 -12 3 -14 -53 -14 -355z"/>
 <path d="M2736 3185 c-142 -95 -263 -178 -268 -183 -7 -7 79 -70 261 -191 149 -100 273 -181 276 -181 8 0 545 360 545 365 0 7 -538 365 -547 364 -5 0 -124 -78 -267 -174z"/>
 <path d="M1530 2995 c0 -213 2 -256 14 -253 24 5 376 242 376 253 0 11 -352 248 -376 253 -12 3 -14 -40 -14 -253z"/>
 <path d="M4273 3127 c-100 -67 -182 -126 -183 -132 0 -10 352 -248 376 -253 12 -3 14 40 14 252 0 199 -3 256 -12 255 -7 0 -95 -55 -195 -122z"/>
 <path d="M1927 2642 c-146 -97 -266 -181 -266 -187 0 -11 1161 -788 1185 -793 12 -3 14 53 14 355 l-1 358 -315 210 c-173 116 -323 216 -332 222 -15 11 -54 -12 -285 -165z"/>
 <path d="M3483 2597 l-332 -222 -1 -358 c0 -302 2 -358 14 -355 24 5 1185 782 1185 793 1 8 -366 257 -508 347 l-26 16 -332 -221z"/>
 </g>

</svg>